<svg width="287" height="77" viewBox="0 0 287 77" fill="none" xmlns="http://www.w3.org/2000/svg">
<path d="M122.763 19.249C125.064 19.249 127.198 19.823 129.166 20.971C131.133 22.0819 132.673 23.6187 133.787 25.5814C134.938 27.5441 135.513 29.6734 135.513 31.9693C135.513 34.2653 134.938 36.3946 133.787 38.3573C132.673 40.2829 131.133 41.8197 129.166 42.9677C127.198 44.1156 125.064 44.6896 122.763 44.6896H115.858V58.132H108.564V19.249H122.763ZM122.763 37.7462C124.359 37.7462 125.714 37.1908 126.827 36.0798C127.978 34.9318 128.553 33.5617 128.553 31.9693C128.553 30.377 127.978 29.0068 126.827 27.8588C125.714 26.7109 124.359 26.1369 122.763 26.1369H115.858V37.7462H122.763Z" fill="#0F0F0F"/>
<path d="M159.788 29.2195H166.696V58.1318H159.788V54.5881C158.488 55.713 157.058 56.5943 155.498 57.2318C153.976 57.8318 152.36 58.1318 150.652 58.1318C147.829 58.1318 145.359 57.4943 143.242 56.2193C141.125 54.9443 139.491 53.1818 138.339 50.9318C137.225 48.6819 136.668 46.1506 136.668 43.3382C136.668 40.5257 137.225 37.9945 138.339 35.7445C139.491 33.4945 141.125 31.732 143.242 30.457C145.359 29.1445 147.829 28.4883 150.652 28.4883C152.36 28.4883 153.976 28.807 155.498 29.4445C157.058 30.0445 158.488 30.907 159.788 32.032V29.2195ZM151.543 51.4381C153.066 51.4381 154.44 51.1006 155.666 50.4256C156.928 49.7131 157.913 48.7381 158.618 47.5006C159.361 46.2631 159.733 44.8569 159.733 43.2819C159.733 40.9194 158.934 38.9882 157.337 37.4882C155.777 35.9882 153.846 35.2382 151.543 35.2382C149.203 35.2382 147.272 36.007 145.749 37.5445C144.263 39.0444 143.52 40.9757 143.52 43.3382C143.52 45.7006 144.263 47.6506 145.749 49.1881C147.272 50.6881 149.203 51.4381 151.543 51.4381Z" fill="#0F0F0F"/>
<path d="M182.332 48.3226C182.332 49.586 182.629 50.4592 183.225 50.9422C183.82 51.4253 184.769 51.6668 186.072 51.6668C186.854 51.6668 187.71 51.6111 188.64 51.4996V57.8535C186.891 58.0393 185.439 58.1322 184.286 58.1322C181.308 58.1322 179.075 57.4633 177.586 56.1257C176.135 54.7509 175.409 52.2985 175.409 48.7685V35.6855L170.161 35.6855V29.2576L175.409 29.2576V23.13L182.332 20.7891V29.2576L188.529 29.2576V35.4814L182.332 35.4814V48.3226Z" fill="#0F0F0F"/>
<path d="M198.369 48.3226C198.369 49.586 198.673 50.4592 199.281 50.9422C199.889 51.4253 200.858 51.6668 202.188 51.6668C202.986 51.6668 203.86 51.6111 204.809 51.4996V57.8535C203.024 58.0393 201.542 58.1322 200.364 58.1322C197.325 58.1322 195.045 57.4633 193.525 56.1257C192.043 54.7509 191.302 52.2985 191.302 48.7685L191.302 35.4814H185.945L185.945 29.2576H191.302V23.13L198.369 20.7891V29.2576H204.695L204.695 35.4814H198.369L198.369 48.3226Z" fill="#0F0F0F"/>
<path d="M223.048 28.4883C225.745 28.4883 228.16 29.1646 230.295 30.5171C232.467 31.8321 234.152 33.6167 235.35 35.871C236.549 38.1252 237.148 40.6237 237.148 43.3664C237.148 44.2681 237.073 45.0946 236.923 45.8461H215.24C215.802 47.8373 216.794 49.3965 218.217 50.5237C219.64 51.6132 221.457 52.158 223.666 52.158C225.014 52.158 226.306 51.8574 227.542 51.2563C228.815 50.6552 229.77 49.8849 230.407 48.9457L235.744 52.1016C234.433 54.0553 232.729 55.5582 230.632 56.6102C228.572 57.6246 226.194 58.1318 223.498 58.1318C220.502 58.1318 217.843 57.4931 215.521 56.2157C213.199 54.9382 211.401 53.1724 210.128 50.9181C208.892 48.6639 208.274 46.1279 208.274 43.31C208.274 40.5298 208.892 38.0125 210.128 35.7583C211.401 33.504 213.162 31.7382 215.409 30.4608C217.656 29.1458 220.202 28.4883 223.048 28.4883ZM230.632 40.3795C230.332 38.5761 229.49 37.1672 228.104 36.1528C226.756 35.1008 225.052 34.5748 222.992 34.5748C221.569 34.5748 220.258 34.8378 219.06 35.3638C217.899 35.8898 216.963 36.6036 216.251 37.5053C215.54 38.407 215.165 39.3651 215.128 40.3795H230.632Z" fill="#0F0F0F"/>
<path d="M257.552 30.0283L257.051 36.4756C256.828 36.4021 256.437 36.3654 255.88 36.3654C253.576 36.3654 251.663 37.0267 250.139 38.3492C248.653 39.6717 247.91 41.4718 247.91 43.7495V58.1319H240.998V30.5794H247.91V35.2082C248.541 33.7387 249.619 32.508 251.142 31.5162C252.666 30.5243 254.505 30.0283 256.66 30.0283H257.552Z" fill="#0F0F0F"/>
<path d="M275.401 28.873C277.018 28.873 278.653 29.2343 280.307 29.9567C281.997 30.6411 283.43 31.8959 284.606 33.7209C285.819 35.546 286.425 37.9985 286.425 41.0784V58.1316H279.59V41.0784C279.59 38.9491 279.002 37.4282 277.827 36.5156C276.688 35.5651 275.346 35.0898 273.803 35.0898C272.26 35.0898 270.937 35.6601 269.834 36.8008C268.769 37.9035 268.236 39.6905 268.236 42.162V58.1316H261.401V29.6145H268.236V32.0099C269.228 31.0594 270.331 30.2989 271.543 29.7286C272.756 29.1582 274.042 28.873 275.401 28.873Z" fill="#0F0F0F"/>
<path d="M0 37.7032C0 36.4275 1.0983 35.4884 2.23926 34.9178C2.76688 34.6539 3.21656 34.2802 3.58831 33.7967C4.46965 32.6731 4.91032 31.2242 4.91032 29.4501V14.0154C4.91032 11.236 5.57132 8.78181 6.89333 6.65289C8.21534 4.52396 9.97802 2.8977 12.1814 1.7741C14.4477 0.591367 16.8399 0 19.358 0H21.9439C23.6448 0 25.0237 1.37889 25.0237 3.07984V4.19398C25.0237 5.89493 23.6448 7.27383 21.9439 7.27383H19.358C17.6583 7.27383 16.2103 7.89476 15.0142 9.13663C13.8811 10.3785 13.3145 11.9752 13.3145 13.9267V30.5146C13.3145 32.8172 12.8762 34.6624 11.9997 36.0502C11.2549 37.2293 11.2906 39.7115 12.0325 40.8925C12.8872 42.2531 13.3145 44.0865 13.3145 46.3928V62.9807C13.3145 64.8731 13.8811 66.4697 15.0142 67.7708C16.2103 69.0126 17.6583 69.6336 19.358 69.6336H21.9439C23.6448 69.6336 25.0237 71.0125 25.0237 72.7134V73.9163C25.0237 75.6172 23.6448 76.9961 21.9439 76.9961H19.358C16.8399 76.9961 14.4477 76.4047 12.1814 75.222C9.97802 74.0984 8.21534 72.4721 6.89333 70.3432C5.57132 68.2143 4.91032 65.7601 4.91032 62.9807V47.546C4.91032 45.7719 4.46965 44.3526 3.58831 43.2881C3.21494 42.7755 2.76295 42.3798 2.23234 42.1011C1.10298 41.5078 0 40.5686 0 39.2928V37.7032Z" fill="#0577FF"/>
<path d="M91.625 39.2928C91.625 40.5686 90.5267 41.5077 89.3857 42.0783C88.8581 42.3422 88.4084 42.7159 88.0367 43.1994C87.1554 44.323 86.7147 45.7719 86.7147 47.546V62.9807C86.7147 65.7601 86.0537 68.2143 84.7317 70.3432C83.4097 72.4721 81.647 74.0984 79.4436 75.222C77.1773 76.4047 74.7851 76.9961 72.267 76.9961H69.6811C67.9802 76.9961 66.6013 75.6172 66.6013 73.9163V72.8021C66.6013 71.1012 67.9802 69.7223 69.6811 69.7223H72.267C73.9667 69.7223 75.4147 69.1013 76.6108 67.8595C77.7439 66.6176 78.3105 65.0209 78.3105 63.0694V46.4815C78.3105 44.1789 78.7488 42.3337 79.6253 40.9459C80.3701 39.7668 80.3344 37.2846 79.5925 36.1036C78.7378 34.743 78.3105 32.9095 78.3105 30.6033V14.0154C78.3105 12.123 77.7439 10.5264 76.6108 9.22534C75.4147 7.98347 73.9667 7.36253 72.267 7.36253H69.6811C67.9802 7.36253 66.6013 5.98364 66.6013 4.28269V3.07984C66.6013 1.37889 67.9802 0 69.6811 0H72.267C74.7851 0 77.1773 0.591366 79.4436 1.7741C81.647 2.8977 83.4097 4.52396 84.7317 6.65289C86.0537 8.78181 86.7147 11.236 86.7147 14.0154V29.4501C86.7147 31.2242 87.1554 32.6435 88.0367 33.708C88.4101 34.2206 88.8621 34.6163 89.3927 34.895C90.522 35.4883 91.625 36.4275 91.625 37.7033V39.2928Z" fill="#0577FF"/>
<path fill-rule="evenodd" clip-rule="evenodd" d="M41.0749 39.6907C41.0749 44.4419 37.2233 48.2935 32.472 48.2935C27.7208 48.2935 23.8691 44.4419 23.8691 39.6907C23.8691 34.9395 27.7208 31.0879 32.472 31.0879C37.2233 31.0879 41.0749 34.9395 41.0749 39.6907ZM72.2959 39.6909C72.2959 44.4421 68.4443 48.2937 63.693 48.2937C61.9532 48.2937 60.3341 47.7773 58.9805 46.8894C57.1694 45.7013 55.2349 44.465 53.0689 44.465H51.4474C48.7609 44.465 46.583 42.2872 46.583 39.6007V39.6007C46.583 36.9142 48.7609 34.7364 51.4474 34.7364H53.2198C55.3766 34.7364 57.3129 33.5315 59.1422 32.389C60.4622 31.5645 62.022 31.0881 63.693 31.0881C68.4443 31.0881 72.2959 34.9397 72.2959 39.6909Z" fill="#0577FF"/>
</svg>
